<?xml version="1.0" encoding="utf-8"?>
<!-- Generator: Adobe Illustrator 17.0.0, SVG Export Plug-In . SVG Version: 6.00 Build 0)  -->
<!DOCTYPE svg PUBLIC "-//W3C//DTD SVG 1.1//EN" "http://www.w3.org/Graphics/SVG/1.1/DTD/svg11.dtd">
<svg version="1.1" id="Layer_1" xmlns="http://www.w3.org/2000/svg" xmlns:xlink="http://www.w3.org/1999/xlink" x="0px" y="0px"
	 width="349px" height="72px" fill="#fff" viewBox="0 0 349 72" enable-background="new 0 0 349 72" xml:space="preserve">
<g>
	<g>
		<path fill="#fff" d="M24.937,41.109l1.228-1.571c1.056,1.228,2.823,2.357,5.132,2.357c2.922,0,3.855-1.571,3.855-2.848
			c0-4.223-9.698-1.866-9.698-7.71c0-2.701,2.406-4.567,5.647-4.567c2.48,0,4.419,0.859,5.795,2.308l-1.228,1.498
			c-1.228-1.375-2.946-1.964-4.739-1.964c-1.94,0-3.364,1.056-3.364,2.603c0,3.683,9.698,1.571,9.698,7.685
			c0,2.357-1.62,4.813-6.04,4.813C28.399,43.712,26.288,42.632,24.937,41.109z"/>
		<path fill="#fff" d="M39.915,28.636c0-0.687,0.565-1.252,1.252-1.252c0.688,0,1.228,0.565,1.228,1.252s-0.54,1.228-1.228,1.228
			C40.479,29.864,39.915,29.324,39.915,28.636z M40.234,43.417V31.558h1.841v11.859H40.234z"/>
		<path fill="#fff" d="M46.126,40.937v-7.759h-1.964v-1.62h1.964v-3.241h1.866v3.241h2.406v1.62h-2.406v7.366c0,0.884,0.393,1.522,1.178,1.522
			c0.54,0,1.007-0.246,1.252-0.516l0.54,1.4c-0.466,0.442-1.129,0.761-2.185,0.761C47.01,43.712,46.126,42.705,46.126,40.937z"/>
		<path fill="#fff" d="M52.289,37.475c0-3.437,2.455-6.212,5.844-6.212c3.585,0,5.696,2.799,5.696,6.359v0.467h-9.576
			c0.147,2.234,1.694,4.1,4.248,4.1c1.375,0,2.725-0.54,3.683-1.522l0.884,1.203c-1.203,1.178-2.799,1.841-4.714,1.841
			C54.818,43.712,52.289,41.183,52.289,37.475z M58.108,32.786c-2.529,0-3.781,2.136-3.879,3.928h7.783
			C61.987,34.971,60.809,32.786,58.108,32.786z"/>
		<path fill="#fff" d="M73.158,43.417V27.04H75v6.31c0.958-1.301,2.406-2.087,4.002-2.087c3.118,0,5.279,2.431,5.279,6.237
			c0,3.855-2.185,6.212-5.279,6.212c-1.669,0-3.118-0.859-4.002-2.062v1.768H73.158z M78.56,42.067c2.381,0,3.805-1.94,3.805-4.567
			s-1.424-4.592-3.805-4.592c-1.473,0-2.922,0.884-3.56,1.915v5.377C75.638,41.232,77.087,42.067,78.56,42.067z"/>
		<path fill="#fff" d="M86.908,46.388c0.27,0.123,0.712,0.197,1.007,0.197c0.81,0,1.35-0.27,1.768-1.252l0.786-1.792l-4.96-11.982h2.013
			l3.928,9.723l3.953-9.723h1.989L91.45,45.823c-0.712,1.719-1.915,2.382-3.486,2.406c-0.393,0-1.007-0.074-1.326-0.172
			L86.908,46.388z"/>
	</g>
	<g>
		<g>
			<g id="Círculo_15_">
				<g>
					<path fill="#fff" d="M204.032,48.378h-6.217l11.013-24.867h5.222l11.083,24.867h-6.216l-2.132-5.115h-10.657L204.032,48.378
						z M208.011,38.68h6.856l-3.446-8.313L208.011,38.68z"/>
					<path fill="#fff" d="M239.093,23.511H227.44v24.867h5.649V28.413h6.004c3.09,0,4.796,1.279,4.796,3.765v0.675
						c0,2.487-1.706,3.837-4.796,3.837h-4.119v4.832h4.119c6.43,0,10.444-3.197,10.444-8.242v-1.527
						C249.538,26.709,245.523,23.511,239.093,23.511z"/>
					<path fill="#fff" d="M278.589,23.511h18.863v4.902h-13.215v4.938h11.012v4.831h-11.012v5.329h13.534v4.867h-19.183V23.511z"
						/>
					<path fill="#fff" d="M301.184,23.511h5.755l11.688,15.915l-0.178-15.915h5.613v24.867h-5.862L306.62,32.641l0.143,15.737
						h-5.578V23.511z"/>
					<path fill="#fff" d="M264.666,23.511h-11.652v24.867h5.649V28.413h6.003c3.091,0,4.796,1.279,4.796,3.765v0.675
						c0,2.487-1.705,3.837-4.796,3.837h-4.12v4.832h4.12c6.431,0,10.444-3.197,10.444-8.242v-1.527
						C275.109,26.709,271.096,23.511,264.666,23.511z"/>
				</g>
			</g>
		</g>
		<path fill="#fff" d="M192.419,39.281c-1.268,2.798-4.078,4.673-7.291,4.673c-4.972,0-7.52-4.391-7.52-7.954
			c0-4.548,3.312-7.967,7.904-7.967c3.492,0,6.289,2.612,7.257,5.635l5.414-1.872c-0.712-2.383-2.052-4.345-3.79-5.823
			c-0.017-0.015-0.035-0.03-0.052-0.045c-0.042-0.035-0.084-0.07-0.126-0.105c-2.332-2.052-5.392-3.071-8.835-3.071
			c-3.104,0-5.966,1.084-7.793,2.468c-3.209,2.208-5.559,5.835-5.662,10.64c-0.034,1.592,0.197,3.061,0.635,4.395h0
			c0.001,0.003,0.002,0.005,0.003,0.007c0.615,1.865,4.122,8.984,12.681,8.984c3.446,0,7.188-0.959,9.672-3.755
			c1.228-1.194,2.206-2.663,2.872-4.375L192.419,39.281z"/>
	</g>
	<path fill="#fff" d="M158.298,26.065l-0.021-13.834h-46.132v47.538h46.132l0.002-13.842l-9.338-10.067L158.298,26.065z
		 M154.611,47.549v8.554h-38.712V15.898h38.712v8.722l-8.226,8.601c-0.76-0.733-1.51-1.422-2.23-2.049
		c-1.515-1.318-2.823-2.305-3.99-3.011l-0.125,0.024l-0.039-0.129c-0.378-0.232-0.782-0.441-1.199-0.618
		c-0.551-0.245-1.067-0.412-1.525-0.493c-0.662-0.151-1.34-0.228-2.014-0.228c-4.986,0-9.169,4.083-9.169,9.07
		c0,4.986,4.097,9.174,9.083,9.174c0.672,0,1.343-0.075,1.99-0.22c0.307-0.064,1.084-0.316,1.115-0.327l0.183-0.074
		c2.462-0.989,4.785-2.859,6.621-4.591l0.086-0.081l-2.521-2.699l-0.111,0.104c-1.322,1.233-3.49,3.078-5.422,3.837l-0.073,0.026
		c-0.589,0.215-1.21,0.324-1.845,0.324c-2.964,0-5.438-2.507-5.438-5.472c0-2.964,2.412-5.376,5.376-5.376
		c0.67,0,1.436,0.147,2.051,0.385c1.239,0.539,3.51,2.131,6.507,5.051l-0.002,0.003l0.119,0.111
		c0.646,0.603,1.431,1.375,2.336,2.293L154.611,47.549z"/>
</g>
</svg>
